<?xml version="1.0" standalone="no"?>
<!DOCTYPE svg PUBLIC "-//W3C//DTD SVG 20010904//EN"
 "http://www.w3.org/TR/2001/REC-SVG-20010904/DTD/svg10.dtd">
<svg version="1.0" xmlns="http://www.w3.org/2000/svg"
 width="780.000000pt" height="780.000000pt" viewBox="0 0 780.000000 780.000000"
 preserveAspectRatio="xMidYMid meet">
<metadata>
Created by potrace 1.11, written by Peter Selinger 2001-2013
</metadata>
<g transform="translate(0.000000,780.000000) scale(0.100000,-0.100000)"
fill="#000000" stroke="none">
<path d="M1650 3895 l0 -2035 375 0 375 0 0 1303 c0 731 -4 1352 -10 1417 -5
63 -7 116 -5 118 2 2 31 -49 63 -114 33 -66 86 -166 117 -224 72 -130 118
-219 308 -585 83 -159 214 -409 292 -555 78 -146 200 -377 271 -514 139 -268
171 -313 259 -356 46 -23 61 -25 200 -25 144 0 152 1 207 28 32 15 74 48 95
71 21 24 97 158 169 297 73 140 190 362 261 494 72 132 185 348 253 480 68
132 149 287 180 345 32 58 88 164 125 235 38 72 71 135 75 140 8 11 123 241
223 445 36 74 79 155 95 180 16 25 55 88 87 140 175 284 381 604 445 693 l41
57 -365 0 c-220 0 -385 -4 -415 -11 -73 -15 -111 -55 -187 -199 -36 -69 -85
-161 -109 -205 -24 -44 -115 -220 -203 -390 -88 -171 -209 -403 -269 -515 -61
-113 -158 -299 -218 -415 -59 -115 -155 -298 -213 -405 -111 -206 -191 -369
-237 -485 -15 -38 -30 -73 -34 -78 -4 -4 -25 37 -46 90 -39 101 -179 389 -245
503 -20 36 -101 191 -180 345 -78 154 -150 294 -160 310 -30 52 -202 380 -335
640 -70 138 -158 306 -195 375 -37 69 -93 175 -125 235 -70 133 -114 179 -185
194 -32 7 -189 11 -415 11 l-365 0 0 -2035z"/>
</g>
</svg>
